<svg xmlns="http://www.w3.org/2000/svg" width="1024" height="1024" version="1.1" desc="Created with imagetracer.js version 1.2.6"><path fill="rgba(7,22,56,1)" stroke="rgb(140,55,30)" stroke-width="1" opacity="0.9294117647058824" d="M 504.5 215 L 552.5 216 Q 554.5 219 560.5 218 L 562.5 220 L 570.5 220 L 578.5 224 L 583.5 224 L 601.5 233 L 605 233 Q 603.7 236.3 608.5 235 Q 609.6 237.8 613 237 Q 611.7 240.3 616.5 239 L 627 245 L 627 247 L 631 247 Q 629.9 249.7 632.5 249 L 654 265 L 656.5 269 L 658 269 L 658 271 L 660 271 L 660 273 Q 662.7 271.9 662 274.5 L 667 278 L 672 286 L 675 287.5 L 681 296.5 Q 680 301.5 683 302.5 L 683 309.5 L 679 320 Q 676.3 318.9 677 321.5 L 671.5 327 L 664.5 331 L 659.5 333 L 650.5 333 Q 648.5 329.8 644 330 Q 645.1 327.3 642.5 328 Q 637.1 324.3 636 318 Q 633.3 319.1 634 316.5 L 628 308 L 626 308 L 626 306 L 624 306 Q 625.1 303.3 622.5 304 Q 606.8 288 585 279 L 585 277 Q 579.7 278.3 580.5 275 L 577.5 275 L 575.5 273 L 571.5 273 L 563.5 269 L 557.5 269 Q 555.5 266 549.5 267 L 547.5 265 L 531.5 265 Q 525.4 261.1 513.5 263 L 509.5 265 L 490.5 265 L 488.5 267 L 482.5 267 L 480.5 269 L 474.5 269 L 466.5 273 L 462 273 Q 463.3 276.3 458.5 275 Q 457.3 278 453 277 Q 454.3 280.3 449.5 279 L 445 281 Q 446.3 284 442.5 283 L 435.5 288 L 433.5 288 L 429.5 292 L 427 292 Q 428.1 294.7 425.5 294 L 412 304 L 412 306 L 410 306 L 410 308 L 408 308 L 408 310 L 406 310 L 406 312 L 404 312 L 404 314 L 402 314 L 402 316 Q 399.3 314.9 400 317.5 L 396 324 Q 393.3 322.9 394 325.5 L 390 332 Q 387 330.8 388 334.5 L 382 345 Q 378.7 343.7 380 348.5 L 376 353.5 L 376 356.5 L 372 363.5 L 372 366.5 L 368 375.5 L 367 385.5 L 365 388.5 L 365 399.5 L 364 400.5 L 365 403.5 L 363 408.5 L 364 411.5 L 363 415.5 L 364 416.5 L 364 428.5 L 363 430.5 L 365 434.5 L 365 436.5 L 366 443.5 L 366 445.5 L 367 451.5 L 366 452.5 L 368 456.5 L 369 462.5 L 371 464.5 Q 368.5 466 372 467.5 L 372 471.5 L 377 481.5 L 378 486.5 L 388 502.5 L 388 505 Q 391 503.8 390 507.5 L 392 511 Q 394.7 509.9 394 512.5 L 402.5 523 Q 404.8 522.3 404 524.5 Q 406.8 525.6 406 529 Q 408.7 527.9 408 530.5 L 416 536.5 L 416 538 L 419 538 Q 417.9 540.7 420.5 540 L 425.5 544 L 427 538.5 L 427 530.5 L 427 528.5 L 427 496.5 Q 424.5 495 426 489.5 L 427 488.5 L 427 471.5 L 426 470.5 L 426 462.5 L 427 461.5 L 427 449.5 L 427 445.5 Q 426.1 437.9 429 435 Q 432 436.3 431 432.5 L 438.5 427 L 449.5 427 L 452.5 425 L 455.5 426 L 457.5 426 L 489.5 426 L 494.5 427 L 495.5 426 L 547.5 426 L 560 423 L 560.5 421 Q 562 423.5 563.5 420 L 569 417.5 L 570.5 415 L 573 413.5 L 575 410.5 L 577 407 Q 579.7 408.1 579 405.5 L 585 396.5 L 585 390.5 Q 587.8 389.8 587 385.5 L 585 383.5 L 585 377.5 Q 581.8 376.1 583 371 Q 580.3 372.1 581 369.5 L 575.5 363 L 569.5 359 L 567 359 L 566.5 357 L 437.5 357 L 427 350.5 Q 427.8 348.3 425.5 349 L 421 341.5 L 421 328.5 Q 423.8 327.8 423 323.5 L 428.5 317 L 437.5 312 L 578.5 312 L 595 319 L 595 321 L 599 321 L 601 325 L 603.5 325 L 615 336.5 L 615 339 L 619 341 L 619 345 Q 621.7 343.9 621 346.5 L 627 356.5 Q 627.2 365.8 632 370.5 L 632 401.5 L 625 420.5 L 621 426.5 L 621 429.5 L 610.5 443 Q 608.3 442.3 609 444.5 L 605 447 Q 606.1 449.7 603.5 449 L 586.5 460 L 579.5 462 L 577.5 464 L 574 464 L 576 471 Q 578.7 469.9 578 472.5 Q 583.8 484.2 593 492.5 L 593 495 Q 595.7 493.9 595 496.5 L 601 505.5 L 601 518.5 L 599 524 L 596 525.5 L 595 529 L 587.5 531 L 585.5 533 L 571.5 533 L 562 526.5 Q 562.8 524.3 560.5 525 L 558 521 L 555 519.5 L 554 515 Q 551.3 516.1 552 513.5 L 548 507 L 546 507 L 546 504 L 544 504 L 544 501 L 540 499 L 540 496.5 L 536 490 Q 533.3 491.1 534 488.5 L 532 485 Q 528.7 486.3 530 481.5 L 520.5 471 L 476.5 471 L 474 472 L 475 476.5 L 474 480 L 476 480.5 L 475 481.5 L 475 495.5 Q 477.2 496.8 476 501.5 L 475 502.5 L 475 543.5 Q 477.8 545.3 476 551.5 L 475 556.5 L 476 558.5 L 475 559.5 L 475 569 L 481.5 572 L 494.5 575 Q 502.8 573.7 506.5 577 L 518.5 577 L 524.5 581 L 527 581 Q 525.9 583.7 528.5 583 L 533 586.5 L 536 598.5 L 536 608.5 L 533 617 L 523.5 623 Q 518.2 622.2 516.5 625 L 504.5 625 L 503.5 624 L 486.5 623 L 482.5 621 L 475.5 621 L 473.5 619 L 468.5 619 L 465.5 617 L 460.5 617 Q 459.5 614 454.5 615 L 452.5 613 L 448 613 Q 449.3 609.7 444.5 611 L 442.5 609 L 438.5 609 L 414.5 597 L 403.5 590 L 398.5 585 L 395 584 Q 396.1 581.3 393.5 582 L 384 576 Q 385.1 573.3 382.5 574 L 377 570 Q 378.1 567.3 375.5 568 Q 367 562.9 364 554 Q 361 555.3 362 551.5 L 360 548 Q 357.3 549.1 358 546.5 L 344.5 529 Q 341.9 529.8 343 526.5 Q 340.3 525.4 341 522 Q 338 523.3 339 519.5 L 329 500.5 L 329 496.5 Q 326.3 495.4 327 492 L 325 491.5 L 325 489.5 L 325 487 L 323 486.5 L 323 481.5 L 321 479.5 Q 322.3 473.8 319 472.5 L 319 460.5 Q 315.7 457.3 316 450.5 L 317 449.5 L 315 445.5 L 314 442.5 L 315 439.5 L 314 437.5 L 315 432.5 L 314 429.5 L 314 427.5 L 315 425.5 L 315 413.5 L 314 411.5 L 315 410.5 L 315 402.5 L 314 399.5 L 315 398.5 L 315 389.5 L 316 388.5 L 317 376.5 L 319 374.5 L 319 367.5 L 321 365.5 L 321 360.5 Q 324.3 359.3 323 353.5 L 325 351.5 Q 324.3 347.3 327 346.5 L 327 342.5 L 331 336.5 L 333 329 Q 336.3 330.3 335 325.5 Q 337.8 324.4 337 321 Q 340 322.3 339 318.5 L 362 286 L 364 286 L 364 284 Q 366.7 285.1 366 282.5 L 374.5 273 Q 376.8 273.8 376 271.5 L 380 269 Q 378.9 266.3 381.5 267 L 394.5 255 L 397 255 Q 395.9 252.3 398.5 253 Q 399.6 250.2 403 251 Q 401.9 248.3 404.5 249 Q 405.6 246.3 409 247 Q 407.8 244 411.5 245 L 416.5 241 L 419 241 L 419 239 Q 424.3 240.3 423.5 237 L 426.5 237 L 441.5 229 L 447.5 228 L 454.5 224 L 459.5 224 L 467.5 220 L 475.5 220 L 477.5 218 Q 482.8 218.8 484.5 216 L 503.5 216 L 504.5 215 Z "/><path fill="rgba(7,22,56,1)" stroke="rgb(140,55,30)" stroke-width="1" opacity="0.9294117647058824" d="M 696.5 343 L 701.5 343 L 707 346 L 711 351.5 Q 711.7 360.3 716 365.5 L 716 373.5 L 720 383.5 L 720 400.5 L 722 402.5 L 722 435.5 Q 718.5 442 720 453.5 L 716 464.5 L 716 470.5 L 713 476.5 L 710 488.5 L 705 497.5 L 705 502.5 L 699 512.5 L 699 515 Q 696 513.8 697 517.5 L 689 530.5 L 689 533 L 687 533 L 687 535 Q 684.3 533.9 685 536.5 L 677.5 546 Q 675.3 545.3 676 547.5 L 671.5 550 L 660.5 551 Q 659 548.5 653.5 550 L 649 548 Q 650.1 545.3 647.5 546 L 640 540.5 Q 640.7 537.9 638 539 L 638 536.5 L 634 532.5 L 634 518.5 L 641 507 Q 643.7 508.1 643 505.5 L 656 487.5 L 659 477 Q 663 478.4 661 471.5 L 665 465.5 L 665 458.5 L 667 456.5 L 667 451.5 L 671 443.5 L 671 424.5 L 673 416.5 L 671 412.5 L 671 390.5 L 669 388.5 Q 670 382.5 667 380.5 L 667 364.5 L 671 358 L 679.5 353 L 683.5 353 L 689 350 L 690.5 347 L 696.5 343 Z "/><path fill="rgba(7,22,56,1)" stroke="rgb(140,55,30)" stroke-width="1" opacity="0.9294117647058824" d="M 432.5 376 L 534.5 376 L 539 378 Q 537.9 380.7 540.5 380 Q 547.2 384.3 547 395.5 L 542.5 404 L 541 404.5 L 542.5 407 Q 536.2 406.2 533.5 409 L 531.5 408 L 529.5 409 L 528.5 408 L 440.5 408 L 438.5 408 L 429.5 408 Q 428.3 405 424 406 L 419 396.5 L 419 390.5 L 425.5 380 L 432.5 376 Z "/><path fill="rgba(7,22,56,1)" stroke="rgb(140,55,30)" stroke-width="1" opacity="0.9294117647058824" d="M 598.5 552 L 612.5 552 L 621 557 L 623 562 L 629 565.5 L 630 569 Q 632.7 567.9 632 570.5 L 634 573.5 L 634 585.5 L 627.5 594 L 619.5 599 L 617 599 Q 618.1 601.7 615.5 601 L 607.5 605 L 604.5 605 L 602.5 607 L 592.5 609 L 590.5 611 L 582.5 611 Q 576 609.5 573 604.5 L 571 601.5 L 567 595.5 Q 567 589.5 564 586.5 L 563 573.5 L 568.5 566 L 575.5 562 L 578.5 562 L 585.5 558 L 593.5 556 L 598.5 552 Z "/><path fill="rgba(7,22,56,1)" stroke="rgb(140,55,30)" stroke-width="1" opacity="0.9294117647058824" d="M 234 672 Q 238.6 670.8 240 673.5 L 240.5 675 L 251.5 675 Q 252.9 677.6 257.5 677 L 259.5 676 L 262.5 679 L 265.5 679 L 271.5 682 L 277 687.5 Q 276.3 689.8 278.5 689 L 280 688.5 L 279 692.5 L 286 704.5 L 286.5 715 L 287.5 713 L 288 714.5 L 287 719 Q 290 720 289 717 L 293 717 L 293 715 Q 295.7 716.1 295 713.5 L 300.5 709 L 304 710 L 306.5 706 Q 312.5 707.3 311.5 704 L 318.5 704 Q 321.7 700.2 330.5 702 L 332.5 704 L 340 704 L 340 706 L 345 706 Q 343.9 708.7 346.5 708 L 350 709 L 353 716 L 355 716 L 355 718 Q 357.7 716.9 357 719.5 L 360 721 L 359 724.5 L 361 726.5 Q 359 734.5 363 736.5 L 363 753.5 L 361 753.5 Q 359.8 757.3 363.5 756 L 363.5 757 Q 357.5 758 355.5 755 Q 353 756.2 354 760 L 351.5 759 L 351 761.5 Q 354 762.8 353 767 L 355 767 L 355 769 L 359 771 L 359 776.5 L 359 778.5 L 358.5 780 L 357.5 778 L 356.5 781 L 351.5 784 L 349 783 L 350 785.5 L 340.5 788 L 338.5 787 L 332.5 791 L 329.5 789 L 323.5 789 Q 320.3 786 314 787 L 314 785 L 305.5 785 L 305 783.5 L 304 781 L 300 778.5 Q 300.8 776.3 298.5 777 L 293 770 L 289 768.5 Q 286.3 766.2 287 760.5 L 288 759.5 L 288 752 L 285 752 L 285 744.5 L 286 741.5 L 283.5 735 L 281 736.5 L 282 738.5 L 274 750 Q 270.3 748.6 272 754.5 L 283 766.5 L 282.5 768 L 285 769.5 L 287 776.5 L 289 778.5 L 290 786.5 L 287.5 791 Q 279.3 792.8 277.5 788 L 262.5 788 L 260.5 787 L 258.5 788 L 257 785 L 254 783.5 Q 254.8 781.3 252.5 782 L 253 780.5 L 251.5 778 L 248 775.5 L 247 769 L 245 769 Q 246.1 766.3 243.5 767 L 242 764 Q 239 765.3 240 761.5 Q 238.4 758.5 233 760 L 234 757.5 L 230.5 756 L 231 757.5 L 232 761.5 L 231 764.5 L 232 769.5 L 231 774.5 L 232 777.5 L 232 787 L 204 787 L 205 784.5 L 205 677.5 Q 202.8 676.3 205.5 675 L 230.5 675 L 231 676.5 L 232 676.5 L 234 672 Z M 232 703 L 232 708 L 232 719 L 231 720 L 232 722 L 231 727 L 232 730 L 232 727 L 243 727 L 246 725 Q 251 727 250 723 L 253 724 L 256 720 Q 255 715 258 714 Q 255 712 256 709 L 248 705 Q 243 704 243 707 L 240 705 Q 235 704 235 707 L 232 703 Z M 287 719 L 286 723 L 289 723 Q 293 724 291 719 L 288 721 L 287 719 Z M 251 725 L 250 728 L 251 728 L 251 725 Z M 322 727 L 322 729 L 324 728 L 322 727 Z M 328 728 Q 327 730 332 731 L 331 730 Q 332 726 328 728 Z M 333 731 L 331 733 L 323 734 L 323 735 L 335 735 L 335 732 L 333 731 Z M 317 755 L 317 756 L 319 756 L 317 755 Z M 321 755 L 318 758 L 319 759 L 321 758 L 321 755 Z M 325 755 L 325 756 L 327 756 L 325 755 Z M 327 758 Q 326 761 322 760 L 320 760 Q 319 762 322 761 L 322 763 L 331 763 L 328 761 Q 329 757 327 758 Z M 330 758 L 330 760 L 334 759 L 330 758 Z M 336 760 L 336 763 L 341 761 L 336 760 Z "/><path fill="rgba(7,22,56,1)" stroke="rgb(140,55,30)" stroke-width="1" opacity="0.9294117647058824" d="M 519 675 L 595.5 675 L 597 676.5 L 597 697.5 L 595 703 L 548 703 L 548 723 L 557.5 723 L 558.5 722 L 586.5 722 L 589 724.5 L 589 748.5 L 587.5 750 L 548.5 750 L 547 751.5 L 547 785.5 L 545.5 787 L 524.5 787 L 523.5 788 L 520 787 L 519 783.5 L 519 675 Z "/><path fill="rgba(7,22,56,1)" stroke="rgb(140,55,30)" stroke-width="1" opacity="0.9294117647058824" d="M 781.5 682 Q 783 684.5 788.5 683 L 791.5 682 L 796.5 683 L 798.5 683 L 802 684.5 L 802 702 L 818.5 702 L 822 704 L 822 724.5 L 818.5 728 L 802 728 L 802 754.5 L 801 757.5 L 802 757.5 L 802.5 756 L 803.5 760 Q 804.8 757.8 806 760.5 L 804 761.5 L 807.5 763 L 809.5 763 L 816.5 763 L 817 765.5 L 820 766.5 Q 817.5 768 819 773.5 L 820.5 773 Q 823.1 772.2 822 775.5 L 821 777.5 L 822 779.5 L 821 782 L 818 782.5 L 820 783.5 L 816.5 785 L 813.5 784 L 812.5 787 L 810.5 787 L 805.5 786 L 797 787.5 L 801 789.5 L 798.5 791 L 797 788 L 786.5 788 L 784 787 L 782 782 L 778 779.5 L 778 776.5 Q 775 777.5 776 772.5 L 772 766.5 L 772 759.5 L 772 757.5 L 773 754.5 L 772 753.5 L 772 742.5 Q 774.3 741.3 773 736.5 L 772 733.5 L 770.5 731 Q 764.5 732.5 763 729.5 L 763.5 728 L 758 729 Q 759.9 726.3 759 719.5 L 756.5 721 Q 754.3 720.3 755 722.5 L 750.5 728 L 746.5 731 L 744.5 730 L 745 731.5 L 744 734.5 Q 745.2 737.8 749 737 Q 750.4 740.7 744.5 739 L 746.5 742 L 750.5 741 L 756 745.5 L 758 748.5 L 759 757.5 Q 756.5 759 758 764.5 L 756.5 766 L 755.5 764 Q 756.2 777.2 747.5 781 Q 745.3 780.3 746 782.5 Q 743 787.5 735.5 788 L 731.5 787 L 727.5 791 L 705 791 L 703.5 788 Q 700.5 788.7 702 785 L 698.5 785 Q 697.3 787.3 696 784.5 Q 696.7 781.9 694 783 L 694 781 L 691.5 781 L 688 780 L 686.5 777 L 686 780 Q 682.7 781.3 684 776.5 Q 681.2 775.8 682 771.5 L 683.5 769 L 685 769.5 L 684 766 L 689.5 764 L 691 764.5 L 692 761.5 L 691.5 760 L 694.5 761 L 695 759 Q 698 760 697 757 L 700.5 757 L 703 756 L 703.5 754 L 706 755.5 L 704.5 753 L 702 753 Q 703.1 750.3 700.5 751 L 698 750 L 697.5 753 L 695.5 750 L 698 749.5 L 694.5 748 L 692 749 L 693 744.5 L 691 744.5 L 690.5 742 L 688.5 743 L 690 740.5 L 689 739.5 Q 690.2 732.8 687 730.5 Q 690.2 728.2 689 721.5 L 688 717 L 690 717 Q 688.9 714.3 691.5 715 L 698.5 707 L 704 706 L 704.5 704 L 711.5 704 L 713.5 702 L 729.5 702 L 732.5 704 L 737.5 704 Q 738.3 706.7 742.5 706 L 745 705 L 744 707.5 L 747.5 708 L 752 707 L 752.5 709 L 755.5 708 L 755 709.5 Q 754.3 712.1 757 711 L 756 705.5 L 759.5 700 L 762.5 702 L 775 702 L 775 700 L 769 700 L 769 698 Q 771.7 699.1 771 696.5 L 773 689.5 L 772.5 688 Q 774.8 688.8 774 686.5 L 775 683 L 781.5 682 Z M 775 689 L 774 694 L 775 694 L 775 689 Z M 717 726 L 715 728 L 717 729 L 717 726 Z M 719 726 L 719 727 L 722 729 L 717 730 L 722 732 L 727 732 L 727 731 Q 724 732 725 729 Q 729 730 730 728 L 730 726 L 719 726 Z M 732 728 Q 732 732 734 729 L 732 728 Z M 729 731 L 727 734 L 732 734 L 736 736 L 737 735 L 739 737 L 738 734 L 737 734 L 729 733 L 729 731 Z M 740 732 L 740 733 L 742 733 L 740 732 Z M 741 737 L 742 738 L 743 739 Q 744 736 741 737 Z M 750 743 L 750 746 L 754 749 L 752 745 Q 753 742 750 743 Z M 708 755 L 707 758 L 703 757 L 705 761 L 709 763 Q 714 762 714 765 L 719 765 L 719 764 L 716 764 Q 716 761 711 762 L 711 758 L 718 759 L 720 759 L 719 757 L 713 757 Q 711 754 708 755 Z M 727 762 L 724 764 L 724 765 L 727 764 L 727 762 Z "/><path fill="rgba(7,22,56,1)" stroke="rgb(140,55,30)" stroke-width="1" opacity="0.9294117647058824" d="M 466.5 683 L 490.5 683 L 492 684.5 L 492 700.5 L 493.5 702 L 508.5 702 Q 507.9 704.8 511 704 L 511 721.5 L 507.5 727 L 500.5 726 L 498.5 727 L 495.5 726 L 492 727 L 492 757.5 L 494 761 Q 499.3 759.8 498.5 763 L 501.5 763 L 503.5 762 L 509 763 L 509 769.5 L 511 770.5 L 511 776.5 Q 513.8 777.2 513 781.5 Q 511.2 786.5 504 785 L 503.5 787 L 484.5 787 L 474 780.5 Q 474.7 777.9 472 779 L 472 777 L 470 777 L 470 774.5 Q 467 773.3 468 769 L 466 768.5 L 466 761.5 L 466 759.5 L 464 756.5 L 464 727 L 453.5 728 L 448.5 726 L 447 726.5 L 448 724.5 L 448 704 L 451.5 702 L 464 702 L 464 685.5 L 466.5 683 Z "/><path fill="rgba(7,22,56,1)" stroke="rgb(140,55,30)" stroke-width="1" opacity="0.9294117647058824" d="M 374.5 702 Q 377.8 705.2 385.5 704 L 390.5 702 L 398 705.5 Q 396.9 708.8 399.5 708 L 401 705 L 418.5 703 Q 420 705.5 425.5 704 L 429.5 706 L 431.5 705 L 431 706.5 L 433 709.5 L 434.5 709 L 436 709.5 L 435 712 L 437 712 L 437 714 Q 439.7 712.9 439 715.5 Q 441.7 716.6 441 720 L 443 720 L 443 726.5 L 445 727.5 L 445 751.5 L 446 753.5 L 445 754.5 L 445 786.5 L 445.5 788 L 444.5 787 L 422.5 787 L 420.5 788 L 417.5 781 L 416 781.5 L 416 779.5 Q 415.3 776.9 418 778 L 418.5 780 L 419 753.5 L 419 751.5 L 419 738.5 L 417 738 L 417 735.5 Q 414.2 734.4 415 731 L 411 729.5 Q 411.9 726.1 406.5 728 L 407.5 731 L 404.5 730 L 405 731.5 L 403.5 734 L 400.5 733 L 400 735.5 L 400.5 737 L 398.5 736 L 398 768.5 Q 400.5 770 399 775.5 L 398 779.5 L 399 781.5 L 398 783.5 L 399 786 Q 396.3 784.9 397 787.5 L 393.5 790 L 388.5 787 L 381.5 787 L 375.5 789 L 373 787.5 L 371.5 790 L 369 785.5 L 370 784.5 L 370 760.5 L 369 756 L 365 754.5 L 367 754 L 369 748.5 L 367 746.5 L 367 737.5 L 369 738.5 L 369.5 741 L 370 704 L 374.5 702 Z "/><path fill="rgba(7,22,56,1)" stroke="rgb(140,55,30)" stroke-width="1" opacity="0.9294117647058824" d="M 634.5 702 Q 641.9 700.6 644.5 704 L 654 704 Q 652.7 707.3 657.5 706 Q 658.6 708.8 662 708 L 662 710 L 664 710 L 664 712 Q 666.7 710.9 666 713.5 L 669 718 L 672 719.5 L 671 721.5 L 673 722 Q 671.5 727.8 675 729.5 L 675.5 776 L 677 770.5 L 676 764 Q 679.3 762.7 678 767.5 Q 680.8 768.3 680 772.5 L 680 774.5 Q 681 778.3 678 777 L 678 780.5 L 677 783.5 L 678 786 Q 674.6 785.3 673.5 788 L 668.5 788 L 663.5 787 L 654.5 791 L 653 787 L 650.5 788 L 646.5 786 Q 645.2 789.3 639.5 788 L 635 787 Q 636.5 790.8 633.5 790 L 632.5 789 L 623.5 789 L 621.5 787 L 615 787 Q 616.3 783.7 611.5 785 L 606 781.5 L 605 777 L 603 777 Q 604.3 771.7 601 772.5 L 601 759.5 L 601 757.5 L 601 753.5 Q 604 754.5 603 749.5 L 606 745 L 609 745 Q 607.9 742.3 610.5 743 L 624.5 736 L 643.5 736 L 648 734.5 L 646 734 Q 647.1 731.3 644.5 732 L 642.5 733 L 642.5 732 Q 645.1 732.7 644 730 Q 640.6 730.8 639.5 728 L 625 728 L 625 730 L 619.5 730 Q 620.5 733.3 614.5 732 L 611.5 733 L 603 718.5 L 603 714.5 Q 604.3 711 609 712 L 610.5 709 L 612.5 710 Q 613.8 707 618 708 L 618 706 Q 623.3 707.3 622.5 704 L 631.5 704 L 634.5 702 Z M 637 755 L 630 757 Q 626 758 627 764 Q 628 766 630 764 L 634 767 Q 640 768 642 765 L 641 762 Q 644 761 643 765 L 644 765 L 646 762 L 646 760 L 647 758 L 647 760 L 648 760 L 648 755 L 637 755 Z "/><path fill="rgba(7,22,56,1)" stroke="rgb(140,55,30)" stroke-width="1" opacity="0.9294117647058824" d="M 367.5 733 L 368 734.5 L 365 736.5 L 367.5 733 Z "/><path fill="rgba(7,22,56,1)" stroke="rgb(140,55,30)" stroke-width="1" opacity="0.9294117647058824" d="M 285 756 L 287 756.5 L 285 757.5 L 285 756 Z "/><path fill="rgba(7,22,56,1)" stroke="rgb(140,55,30)" stroke-width="1" opacity="0.9294117647058824" d="M 629 760 L 631 760.5 L 629 761.5 L 629 760 Z "/><path fill="rgba(7,22,56,1)" stroke="rgb(140,55,30)" stroke-width="1" opacity="0.9294117647058824" d="M 463 764 Q 465.7 762.9 465 765.5 L 463 766.5 L 463 764 Z "/><path fill="rgba(7,22,56,1)" stroke="rgb(140,55,30)" stroke-width="1" opacity="0.9294117647058824" d="M 367.5 776 L 369 778.5 L 367 779.5 L 367.5 776 Z "/><path fill="rgba(7,22,56,1)" stroke="rgb(140,55,30)" stroke-width="1" opacity="0.9294117647058824" d="M 447.5 781 Q 450.5 782.5 447.5 784 Q 444.5 782.5 447.5 781 Z "/><path fill="rgba(7,22,56,1)" stroke="rgb(0,0,0)" stroke-width="1" opacity="0" d="M 0 0 L 1024 0 L 1024 1024 L 0 1024 L 0 0 Z M 505 215 L 504 216 L 485 216 Q 483 219 478 218 L 476 220 L 468 220 L 460 224 L 455 224 L 448 228 L 442 229 L 427 237 L 424 237 Q 424 240 419 239 L 419 241 L 417 241 L 412 245 Q 408 244 409 247 Q 406 246 405 249 Q 402 248 403 251 Q 400 250 399 253 Q 396 252 397 255 L 395 255 L 382 267 Q 379 266 380 269 L 376 272 Q 377 274 375 273 L 366 283 Q 367 285 364 284 L 364 286 L 362 286 L 339 319 Q 340 322 337 321 Q 338 324 335 326 Q 336 330 333 329 L 331 337 L 327 343 L 327 347 Q 324 347 325 352 L 323 354 Q 324 359 321 361 L 321 366 L 319 368 L 319 375 L 317 377 L 316 389 L 315 390 L 315 399 L 314 400 L 315 403 L 315 411 L 314 412 L 315 414 L 315 426 L 314 428 L 314 430 L 315 433 L 314 438 L 315 440 L 314 443 L 315 446 L 317 450 L 316 451 Q 316 457 319 461 L 319 473 Q 322 474 321 480 L 323 482 L 323 487 L 325 487 L 325 490 L 325 492 L 327 492 Q 326 495 329 497 L 329 501 L 339 520 Q 338 523 341 522 Q 340 525 343 527 Q 342 530 345 529 L 358 547 Q 357 549 360 548 L 362 552 Q 361 555 364 554 Q 367 563 376 568 Q 378 567 377 570 L 383 574 Q 385 573 384 576 L 394 582 Q 396 581 395 584 L 399 585 L 404 590 L 415 597 L 439 609 L 443 609 L 445 611 Q 449 610 448 613 L 453 613 L 455 615 Q 460 614 461 617 L 466 617 L 469 619 L 474 619 L 476 621 L 483 621 L 487 623 L 504 624 L 505 625 L 517 625 Q 518 622 524 623 L 533 617 L 536 609 L 536 599 L 533 587 L 529 583 Q 526 584 527 581 L 525 581 L 519 577 L 507 577 Q 503 574 495 575 L 482 572 L 475 569 L 475 560 L 476 559 L 475 557 L 476 552 Q 478 545 475 544 L 475 503 L 476 502 Q 477 497 475 496 L 475 482 L 476 481 L 474 480 L 475 477 L 474 472 L 477 471 L 521 471 L 530 482 Q 529 486 532 485 L 534 489 Q 533 491 536 490 L 540 497 L 540 499 L 544 501 L 544 504 L 546 504 L 546 507 L 548 507 L 552 514 Q 551 516 554 515 L 555 520 L 558 521 L 561 525 Q 563 524 562 527 L 572 533 L 586 533 L 588 531 L 595 529 L 596 526 L 599 524 L 601 519 L 601 506 L 595 497 Q 596 494 593 495 L 593 493 Q 584 484 578 473 Q 579 470 576 471 L 574 464 L 578 464 L 580 462 L 587 460 L 604 449 Q 606 450 605 447 L 609 445 Q 608 442 611 443 L 621 430 L 621 427 L 625 421 L 632 402 L 632 371 Q 627 366 627 357 L 621 347 Q 622 344 619 345 L 619 341 L 615 339 L 615 337 L 604 325 L 601 325 L 599 321 L 595 321 L 595 319 L 579 312 L 438 312 L 429 317 L 423 324 Q 424 328 421 329 L 421 342 L 426 349 Q 428 348 427 351 L 438 357 L 567 357 L 567 359 L 570 359 L 576 363 L 581 370 Q 580 372 583 371 Q 582 376 585 378 L 585 384 L 587 386 Q 588 390 585 391 L 585 397 L 579 406 Q 580 408 577 407 L 575 411 L 573 414 L 571 415 L 569 418 L 564 420 Q 562 423 561 421 L 560 423 L 548 426 L 496 426 L 495 427 L 490 426 L 458 426 L 456 426 L 453 425 L 450 427 L 439 427 L 431 433 Q 432 436 429 435 Q 426 438 427 446 L 427 450 L 427 462 L 426 463 L 426 471 L 427 472 L 427 489 L 426 490 Q 425 495 427 497 L 427 529 L 427 531 L 427 539 L 426 544 L 421 540 Q 418 541 419 538 L 416 538 L 416 537 L 408 531 Q 409 528 406 529 Q 407 526 404 525 Q 405 522 403 523 L 394 513 Q 395 510 392 511 L 390 508 Q 391 504 388 505 L 388 503 L 378 487 L 377 482 L 372 472 L 372 468 Q 368 466 371 465 L 369 463 L 368 457 L 366 453 L 367 452 L 366 446 L 366 444 L 365 437 L 365 435 L 363 431 L 364 429 L 364 417 L 363 416 L 364 412 L 363 409 L 365 404 L 364 401 L 365 400 L 365 389 L 367 386 L 368 376 L 372 367 L 372 364 L 376 357 L 376 354 L 380 349 Q 379 344 382 345 L 388 335 Q 387 331 390 332 L 394 326 Q 393 323 396 324 L 400 318 Q 399 315 402 316 L 402 314 L 404 314 L 404 312 L 406 312 L 406 310 L 408 310 L 408 308 L 410 308 L 410 306 L 412 306 L 412 304 L 426 294 Q 428 295 427 292 L 430 292 L 434 288 L 436 288 L 443 283 Q 446 284 445 281 L 450 279 Q 454 280 453 277 Q 457 278 459 275 Q 463 276 462 273 L 467 273 L 475 269 L 481 269 L 483 267 L 489 267 L 491 265 L 510 265 L 514 263 Q 525 261 532 265 L 548 265 L 550 267 Q 556 266 558 269 L 564 269 L 572 273 L 576 273 L 578 275 L 581 275 Q 580 278 585 277 L 585 279 Q 607 288 623 304 Q 625 303 624 306 L 626 306 L 626 308 L 628 308 L 634 317 Q 633 319 636 318 Q 637 324 643 328 Q 645 327 644 330 Q 649 330 651 333 L 660 333 L 665 331 L 672 327 L 677 322 Q 676 319 679 320 L 683 310 L 683 303 Q 680 302 681 297 L 675 288 L 672 286 L 667 278 L 662 275 Q 663 272 660 273 L 660 271 L 658 271 L 658 269 L 657 269 L 654 265 L 633 249 Q 630 250 631 247 L 627 247 L 627 245 L 617 239 Q 612 240 613 237 Q 610 238 609 235 Q 604 236 605 233 L 602 233 L 584 224 L 579 224 L 571 220 L 563 220 L 561 218 Q 555 219 553 216 L 505 215 Z M 697 343 L 691 347 L 689 350 L 684 353 L 680 353 L 671 358 L 667 365 L 667 381 Q 670 383 669 389 L 671 391 L 671 413 L 673 417 L 671 425 L 671 444 L 667 452 L 667 457 L 665 459 L 665 466 L 661 472 Q 663 478 659 477 L 656 488 L 643 506 Q 644 508 641 507 L 634 519 L 634 533 L 638 537 L 638 539 Q 641 538 640 541 L 648 546 Q 650 545 649 548 L 654 550 Q 659 549 661 551 L 672 550 L 676 548 Q 675 545 678 546 L 685 537 Q 684 534 687 535 L 687 533 L 689 533 L 689 531 L 697 518 Q 696 514 699 515 L 699 513 L 705 503 L 705 498 L 710 489 L 713 477 L 716 471 L 716 465 L 720 454 Q 719 442 722 436 L 722 403 L 720 401 L 720 384 L 716 374 L 716 366 Q 712 360 711 352 L 707 346 L 702 343 L 697 343 Z M 433 376 L 426 380 L 419 391 L 419 397 L 424 406 Q 428 405 430 408 L 439 408 L 441 408 L 529 408 L 530 409 L 532 408 L 534 409 Q 536 406 543 407 L 541 405 L 543 404 L 547 396 Q 547 384 541 380 Q 538 381 539 378 L 535 376 L 433 376 Z M 599 552 L 594 556 L 586 558 L 579 562 L 576 562 L 569 566 L 563 574 L 564 587 Q 567 589 567 596 L 571 602 L 573 605 Q 576 609 583 611 L 591 611 L 593 609 L 603 607 L 605 605 L 608 605 L 616 601 Q 618 602 617 599 L 620 599 L 628 594 L 634 586 L 634 574 L 632 571 Q 633 568 630 569 L 629 566 L 623 562 L 621 557 L 613 552 L 599 552 Z M 234 672 L 232 677 L 231 677 L 231 675 L 206 675 Q 203 676 205 678 L 205 785 L 204 787 L 232 787 L 232 778 L 231 775 L 232 770 L 231 765 L 232 762 L 231 758 L 231 756 L 234 757 L 233 759 Q 232 761 239 760 L 240 764 L 243 763 L 242 765 L 244 767 Q 246 766 245 769 L 247 769 L 248 776 L 253 780 L 252 782 L 254 782 L 255 782 L 254 784 L 257 785 L 259 788 L 261 787 L 263 788 L 278 788 Q 279 793 288 791 L 290 787 L 289 779 L 287 777 L 285 770 L 283 768 L 283 767 L 272 755 Q 270 749 274 750 L 282 739 L 281 737 L 284 735 L 286 742 L 285 745 L 285 752 L 288 752 L 288 760 L 287 761 Q 286 768 291 770 L 294 769 L 293 771 L 299 777 Q 301 776 300 779 L 304 781 L 305 784 L 306 785 L 314 785 L 314 787 Q 320 786 324 789 L 330 789 L 333 791 L 339 787 L 341 788 L 350 786 L 349 783 L 352 784 L 357 781 Q 355 779 359 777 L 359 771 L 355 769 L 355 767 L 353 767 Q 354 763 351 762 L 352 759 L 354 760 Q 353 756 356 755 Q 358 758 364 757 L 364 756 Q 360 757 361 754 L 363 754 L 363 737 Q 359 735 361 727 L 359 725 L 360 721 L 358 722 L 357 720 Q 358 717 355 718 L 355 716 L 353 716 L 350 709 L 347 708 Q 344 709 345 706 L 340 706 L 340 704 L 333 704 L 331 702 Q 322 700 319 704 L 312 704 Q 312 707 307 706 L 304 710 L 301 709 L 295 714 Q 296 716 293 715 L 293 717 L 289 717 Q 288 720 291 719 L 291 723 L 292 724 L 289 723 L 286 723 L 287 719 L 286 705 L 279 693 L 280 689 L 279 689 Q 276 690 277 688 L 272 682 L 266 679 L 263 679 L 260 676 L 258 677 Q 253 678 252 675 L 241 675 L 240 674 Q 239 671 234 672 Z M 519 675 L 519 784 L 520 787 L 524 788 L 525 787 L 546 787 L 547 786 L 547 752 L 549 750 L 588 750 L 589 749 L 589 725 L 587 722 L 559 722 L 558 723 L 548 723 L 548 703 L 595 703 L 597 698 L 597 677 L 596 675 L 519 675 Z M 782 682 L 775 683 L 774 687 Q 775 689 773 688 L 773 690 L 771 697 Q 772 699 769 698 L 769 700 L 775 700 L 775 702 L 763 702 L 760 700 L 756 706 L 757 711 Q 754 712 755 710 L 756 708 L 753 709 L 752 707 L 748 708 L 744 708 L 745 705 L 743 706 Q 738 707 738 704 L 733 704 L 730 702 L 714 702 L 712 704 L 705 704 L 704 706 L 699 707 L 692 715 Q 689 714 690 717 L 688 717 L 689 722 Q 690 728 687 731 Q 690 733 689 740 L 690 741 L 689 743 L 691 742 L 691 745 L 693 745 L 692 749 L 695 748 L 701 751 Q 703 750 702 753 L 705 753 L 706 756 L 704 754 L 703 756 L 701 757 L 697 757 Q 698 760 695 759 L 695 761 L 692 760 L 692 762 L 691 765 L 690 764 L 684 766 L 685 770 L 684 769 L 682 775 Q 683 777 685 775 L 684 777 Q 683 781 686 780 L 687 777 L 688 780 L 692 781 L 694 781 L 694 783 Q 697 782 696 785 Q 697 787 699 785 L 702 785 Q 700 789 704 788 L 705 791 L 728 791 L 732 787 L 736 788 Q 743 787 746 783 Q 745 780 748 781 Q 756 777 756 764 L 757 766 L 758 765 Q 757 759 759 758 L 758 749 L 756 746 L 752 743 L 754 749 L 750 746 Q 749 742 752 743 L 751 741 L 747 742 L 745 739 Q 750 741 749 737 Q 745 738 744 735 L 745 732 L 745 730 L 747 731 L 751 728 L 755 722 L 755 720 L 757 721 L 759 720 Q 760 726 758 729 L 764 728 L 763 730 Q 764 732 771 731 L 772 734 L 773 737 Q 774 741 772 743 L 772 754 L 773 755 L 772 758 L 772 760 L 772 767 L 776 773 Q 775 778 778 777 L 778 780 L 782 782 L 784 787 L 787 788 L 797 788 L 806 786 L 811 787 L 813 787 L 814 784 L 817 785 L 820 784 L 818 783 L 821 782 L 822 780 L 821 778 L 822 776 Q 823 772 821 773 L 819 774 Q 818 768 820 767 L 817 766 L 817 763 L 810 763 L 808 763 L 804 762 L 806 761 Q 805 758 804 760 L 803 756 L 802 758 L 801 758 L 802 755 L 802 729 L 801 728 L 803 728 L 819 728 L 820 727 L 819 726 L 819 725 L 821 726 L 822 725 L 822 704 L 820 705 L 818 705 L 820 704 L 819 702 L 803 702 L 801 703 L 802 702 L 802 685 L 799 683 L 797 683 L 792 682 L 789 683 Q 783 685 782 682 Z M 467 683 L 464 686 L 464 702 L 452 702 L 448 704 L 448 725 L 447 727 L 449 726 L 454 728 L 464 727 L 464 757 L 466 760 L 466 762 L 466 769 L 468 769 Q 467 773 470 775 L 470 777 L 472 777 L 472 779 Q 475 778 474 781 L 485 787 L 504 787 L 504 785 Q 511 787 513 782 Q 514 777 511 777 L 511 771 L 509 770 L 509 763 L 504 762 L 502 763 L 499 763 Q 499 760 494 761 L 492 758 L 492 727 L 496 726 L 499 727 L 501 726 L 508 727 L 511 722 L 511 704 Q 508 705 509 702 L 494 702 L 492 701 L 492 685 L 491 683 L 467 683 Z M 375 702 L 370 704 L 370 741 L 369 739 L 367 738 L 367 747 L 369 749 L 367 754 L 365 755 L 369 756 L 370 761 L 370 785 L 369 786 L 372 790 L 373 788 L 376 789 L 382 787 L 389 787 L 394 790 L 397 788 L 396 785 L 397 785 Q 396 787 399 786 L 398 784 L 399 782 L 398 780 L 399 776 Q 401 770 398 769 L 399 736 L 401 737 L 400 736 L 401 733 L 404 734 L 405 732 L 405 730 L 408 731 L 407 728 Q 412 726 411 730 L 415 731 Q 414 734 417 736 Q 416 739 419 738 L 419 752 L 418 753 L 419 754 L 419 780 L 418 780 Q 419 777 416 778 L 419 783 Q 418 787 421 788 L 423 787 L 445 787 L 445 755 L 446 754 L 445 752 L 445 728 L 443 727 L 443 720 L 441 720 Q 442 717 439 716 Q 440 713 437 714 L 437 712 L 435 712 L 436 710 L 435 709 L 433 710 L 431 707 L 432 705 L 430 706 L 426 704 Q 420 706 419 703 L 401 705 L 400 708 Q 397 709 398 706 L 391 702 L 386 704 Q 378 705 375 702 Z M 635 702 L 632 704 L 623 704 Q 623 707 618 706 L 618 708 Q 614 707 613 710 L 611 709 L 609 712 Q 604 711 603 715 L 603 719 L 612 733 L 615 732 Q 620 733 620 730 L 625 730 L 625 728 L 640 728 L 642 730 L 644 730 L 646 734 L 648 735 L 644 736 L 625 736 L 611 743 Q 608 742 609 745 L 606 745 L 603 750 Q 604 755 601 754 L 601 758 L 601 760 L 601 773 Q 604 772 603 777 L 605 777 L 606 782 L 612 785 Q 616 784 615 787 L 622 787 L 624 789 L 633 789 L 634 790 Q 637 791 635 787 L 640 788 Q 645 789 647 786 L 651 788 L 653 787 L 655 791 L 664 787 L 669 788 L 674 788 Q 675 785 678 786 L 677 784 L 678 781 L 678 777 Q 681 778 680 775 L 680 773 Q 681 768 678 768 Q 679 763 676 764 L 677 771 L 676 776 L 675 730 Q 672 728 673 722 L 671 722 L 672 720 L 669 718 L 666 714 Q 667 711 664 712 L 664 710 L 662 710 L 662 708 Q 659 709 658 706 Q 653 707 654 704 L 645 704 Q 642 701 635 702 Z M 287 719 L 287 721 L 289 720 L 287 719 Z M 365 735 L 365 737 L 367 736 L 365 735 Z M 696 750 L 698 753 Q 699 749 696 750 Z M 285 756 L 285 758 L 287 757 L 285 756 Z M 463 764 L 463 767 L 465 766 Q 466 763 463 764 Z M 368 776 L 367 780 L 369 779 L 368 776 Z M 797 788 L 799 791 L 801 790 L 797 788 Z "/><path fill="rgba(7,22,56,1)" stroke="rgb(0,0,0)" stroke-width="1" opacity="0" d="M 774.5 689 L 775 693.5 L 774 693.5 L 774.5 689 Z "/><path fill="rgba(7,22,56,1)" stroke="rgb(0,0,0)" stroke-width="1" opacity="0" d="M 231.5 703 L 234.5 707 Q 235.3 704.3 239.5 705 L 242.5 707 Q 243.3 704.3 247.5 705 L 256 709 Q 255.3 712.4 258 713.5 Q 255 714.5 256 719.5 L 252.5 724 L 250 723 L 251 727.5 L 250 727.5 Q 251.3 722.9 245.5 725 L 242.5 727 L 232 727 L 231.5 730 L 231 726.5 L 232 721.5 L 231 719.5 L 232 718.5 L 232 707.5 L 231.5 703 Z "/><path fill="rgba(7,22,56,1)" stroke="rgb(0,0,0)" stroke-width="1" opacity="0" d="M 716.5 726 L 717 729 L 722 728.5 L 718 726.5 L 730 726 L 728.5 729 Q 723.7 727.7 725 731 L 727.5 732 L 729 731.5 Q 728.4 734.3 734.5 733 L 736.5 734 L 738 733.5 L 739 736.5 L 736.5 735 L 735.5 736 L 731.5 734 L 727 734 Q 728.4 730 721.5 732 L 715 727.5 L 716.5 726 Z "/><path fill="rgba(7,22,56,1)" stroke="rgb(0,0,0)" stroke-width="1" opacity="0" d="M 322 727 L 324 727.5 L 323.5 730 L 322 727 Z "/><path fill="rgba(7,22,56,1)" stroke="rgb(0,0,0)" stroke-width="1" opacity="0" d="M 327.5 728 Q 331.9 726.5 331 729.5 L 335 732 L 334.5 735 L 322.5 735 L 322.5 734 L 330.5 733 L 332 731.5 L 327.5 729 L 327.5 728 Z "/><path fill="rgba(7,22,56,1)" stroke="rgb(0,0,0)" stroke-width="1" opacity="0" d="M 731.5 728 L 734 728.5 Q 731.9 731.8 731.5 728 Z "/><path fill="rgba(7,22,56,1)" stroke="rgb(0,0,0)" stroke-width="1" opacity="0" d="M 739.5 732 L 742 732.5 L 739.5 733 L 739.5 732 Z "/><path fill="rgba(7,22,56,1)" stroke="rgb(0,0,0)" stroke-width="1" opacity="0" d="M 740.5 737 Q 743.8 735.9 743 738.5 L 741.5 738 L 740.5 737 Z "/><path fill="rgba(7,22,56,1)" stroke="rgb(0,0,0)" stroke-width="1" opacity="0" d="M 316.5 755 L 319.5 756 L 321 755.5 Q 322.1 758.8 319.5 758 L 318 758.5 L 319 756.5 Q 315.7 756.6 316.5 755 Z "/><path fill="rgba(7,22,56,1)" stroke="rgb(0,0,0)" stroke-width="1" opacity="0" d="M 324.5 755 L 327 755.5 L 324.5 756 L 324.5 755 Z "/><path fill="rgba(7,22,56,1)" stroke="rgb(0,0,0)" stroke-width="1" opacity="0" d="M 636.5 755 L 648 755 L 648 759.5 L 646 763 Q 643.3 761.9 644 764.5 L 643 764.5 Q 644 760.8 641 762 L 642 764.5 Q 640 768 633.5 767 L 629.5 764 Q 628.2 766.3 627 763.5 Q 626 758 629.5 757 L 636.5 755 Z M 629 760 L 629 762 L 631 761 L 629 760 Z "/><path fill="rgba(7,22,56,1)" stroke="rgb(0,0,0)" stroke-width="1" opacity="0" d="M 708 755 Q 711.4 754.3 712.5 757 L 718.5 757 L 720 758.5 L 717.5 759 L 711 758 L 711 762 Q 716.3 760.8 715.5 764 L 718.5 764 L 718.5 765 L 713.5 765 Q 714.5 761.8 708.5 763 L 705 761 L 703 757 L 706.5 758 L 708 755 Z "/><path fill="rgba(7,22,56,1)" stroke="rgb(0,0,0)" stroke-width="1" opacity="0" d="M 326.5 758 Q 329.1 757.2 328 760.5 L 331 762.5 L 322 763 L 322 761 Q 319.3 762.1 320 759.5 L 321.5 760 Q 325.8 760.8 326.5 758 Z "/><path fill="rgba(7,22,56,1)" stroke="rgb(0,0,0)" stroke-width="1" opacity="0" d="M 330 758 L 334 758.5 L 330 760 L 330 758 Z "/><path fill="rgba(7,22,56,1)" stroke="rgb(0,0,0)" stroke-width="1" opacity="0" d="M 336 760 L 341 760.5 L 336 763 L 336 760 Z "/><path fill="rgba(7,22,56,1)" stroke="rgb(0,0,0)" stroke-width="1" opacity="0" d="M 727.5 761 L 727 762.5 L 725.5 765 L 723 764.5 L 727.5 761 Z "/></svg>